<svg width="57" height="56" viewBox="0 0 57 56" fill="none" xmlns="http://www.w3.org/2000/svg">
<path d="M3 46L22.103 25.9564C26.1702 21.689 33.0273 21.8478 36.8925 26.299L54 46" stroke="#701EF5" stroke-width="6"/>
<rect x="4" y="3" width="50" height="50" rx="7" stroke="#701EF5" stroke-width="6"/>
<path fill-rule="evenodd" clip-rule="evenodd" d="M11 6H47C48.9004 6 50.4912 7.32523 50.8988 9.10194L37.8389 30.5874C34.0395 36.838 25.0346 37.0278 20.975 30.943L7 9.99565C7.00235 7.78851 8.79231 6 11 6ZM7 9.99565L3 4H54L50.8988 9.10194C50.965 9.39062 51 9.69123 51 10V46C51 48.2091 49.2091 50 47 50H11C8.79086 50 7 48.2091 7 46V10C7 9.99855 7 9.9971 7 9.99565ZM1 10C1 4.47715 5.47715 0 11 0H47C52.5229 0 57 4.47715 57 10V46C57 51.5229 52.5228 56 47 56H11C5.47715 56 1 51.5228 1 46V10Z" fill="#701EF5"/>
</svg>
