<svg width="271" height="79" viewBox="0 0 271 79" fill="none" xmlns="http://www.w3.org/2000/svg">
<path d="M1.00012 43.3725C1.00004 59.3159 8.27474 73.6645 13.9279 79H257.346C270.116 68.6732 271.645 50.9455 270.814 43.3725C269.617 12.3922 242.382 1.54902 228.914 0H40.8636C12.5001 5 1.00022 24.5 1.00012 43.3725Z" fill="#701EF5"/>
<path d="M239.308 33.3419C232.022 21.6826 216.956 19.0454 210.333 19.1842C207.352 17.8517 206.883 15.2978 207.021 14.1874C207.021 11.1894 211.988 10.1622 214.472 10.0234C239.97 9.35718 247.448 23.0707 248 30.0107C246.675 37.0062 241.653 35.1463 239.308 33.3419Z" fill="white"/>
<path d="M68.0559 53.24C66.8399 53.24 65.7039 53.016 64.6479 52.568C63.5919 52.12 62.6639 51.504 61.8639 50.72C61.0639 49.92 60.4319 49 59.9679 47.96C59.5199 46.92 59.2959 45.8 59.2959 44.6C59.2959 43.4 59.5199 42.28 59.9679 41.24C60.4319 40.2 61.0639 39.288 61.8639 38.504C62.6639 37.704 63.5919 37.08 64.6479 36.632C65.7039 36.184 66.8399 35.96 68.0559 35.96C68.8079 35.96 69.5359 36.04 70.2399 36.2C70.9439 36.36 71.5919 36.6 72.1839 36.92C72.4239 37.048 72.5999 37.224 72.7119 37.448C72.8399 37.656 72.9039 37.872 72.9039 38.096C72.9039 38.48 72.7759 38.824 72.5199 39.128C72.2639 39.432 71.9359 39.584 71.5359 39.584C71.4079 39.584 71.2719 39.568 71.1279 39.536C70.9999 39.504 70.8719 39.456 70.7439 39.392C70.3439 39.216 69.9199 39.08 69.4719 38.984C69.0239 38.888 68.5519 38.84 68.0559 38.84C67.0159 38.84 66.0639 39.104 65.1999 39.632C64.3519 40.144 63.6719 40.84 63.1599 41.72C62.6639 42.584 62.4159 43.544 62.4159 44.6C62.4159 45.64 62.6639 46.6 63.1599 47.48C63.6719 48.36 64.3519 49.064 65.1999 49.592C66.0639 50.104 67.0159 50.36 68.0559 50.36C68.5359 50.36 69.0639 50.312 69.6399 50.216C70.2159 50.12 70.6879 49.992 71.0559 49.832L70.8399 50.552V46.448L71.2479 46.808H68.5839C68.1679 46.808 67.8159 46.672 67.5279 46.4C67.2559 46.128 67.1199 45.784 67.1199 45.368C67.1199 44.952 67.2559 44.608 67.5279 44.336C67.8159 44.064 68.1679 43.928 68.5839 43.928H72.5199C72.9359 43.928 73.2799 44.072 73.5519 44.36C73.8239 44.632 73.9599 44.976 73.9599 45.392V50.48C73.9599 50.8 73.8799 51.064 73.7199 51.272C73.5759 51.48 73.4079 51.648 73.2159 51.776C72.4799 52.224 71.6719 52.584 70.7919 52.856C69.9279 53.112 69.0159 53.24 68.0559 53.24ZM82.6549 53.24C81.2949 53.24 80.1109 52.96 79.1029 52.4C78.1109 51.824 77.3429 51.048 76.7989 50.072C76.2709 49.096 76.0069 47.992 76.0069 46.76C76.0069 45.32 76.2949 44.096 76.8709 43.088C77.4629 42.064 78.2309 41.28 79.1749 40.736C80.1189 40.192 81.1189 39.92 82.1749 39.92C82.9909 39.92 83.7589 40.088 84.4789 40.424C85.2149 40.76 85.8629 41.224 86.4229 41.816C86.9829 42.392 87.4229 43.064 87.7429 43.832C88.0789 44.6 88.2469 45.416 88.2469 46.28C88.2309 46.664 88.0789 46.976 87.7909 47.216C87.5029 47.456 87.1669 47.576 86.7829 47.576H77.6149L76.8949 45.176H85.7029L85.1749 45.656V45.008C85.1429 44.544 84.9749 44.128 84.6709 43.76C84.3829 43.392 84.0149 43.104 83.5669 42.896C83.1349 42.672 82.6709 42.56 82.1749 42.56C81.6949 42.56 81.2469 42.624 80.8309 42.752C80.4149 42.88 80.0549 43.096 79.7509 43.4C79.4469 43.704 79.2069 44.112 79.0309 44.624C78.8549 45.136 78.7669 45.784 78.7669 46.568C78.7669 47.432 78.9429 48.168 79.2949 48.776C79.6629 49.368 80.1269 49.824 80.6869 50.144C81.2629 50.448 81.8709 50.6 82.5109 50.6C83.1029 50.6 83.5749 50.552 83.9269 50.456C84.2789 50.36 84.5589 50.248 84.7669 50.12C84.9909 49.976 85.1909 49.856 85.3669 49.76C85.6549 49.616 85.9269 49.544 86.1829 49.544C86.5349 49.544 86.8229 49.664 87.0469 49.904C87.2869 50.144 87.4069 50.424 87.4069 50.744C87.4069 51.176 87.1829 51.568 86.7349 51.92C86.3189 52.272 85.7349 52.584 84.9829 52.856C84.2309 53.112 83.4549 53.24 82.6549 53.24ZM90.9071 40.4H96.5951C96.9791 40.4 97.2991 40.528 97.5551 40.784C97.8111 41.04 97.9391 41.36 97.9391 41.744C97.9391 42.112 97.8111 42.424 97.5551 42.68C97.2991 42.92 96.9791 43.04 96.5951 43.04H90.9071C90.5231 43.04 90.2031 42.912 89.9471 42.656C89.6911 42.4 89.5631 42.08 89.5631 41.696C89.5631 41.328 89.6911 41.024 89.9471 40.784C90.2031 40.528 90.5231 40.4 90.9071 40.4ZM93.4751 37.4C93.8911 37.4 94.2271 37.544 94.4831 37.832C94.7551 38.104 94.8911 38.448 94.8911 38.864V49.544C94.8911 49.768 94.9311 49.952 95.0111 50.096C95.1071 50.24 95.2271 50.344 95.3711 50.408C95.5311 50.472 95.6991 50.504 95.8751 50.504C96.0671 50.504 96.2431 50.472 96.4031 50.408C96.5631 50.328 96.7471 50.288 96.9551 50.288C97.1791 50.288 97.3791 50.392 97.5551 50.6C97.7471 50.808 97.8431 51.096 97.8431 51.464C97.8431 51.912 97.5951 52.28 97.0991 52.568C96.6191 52.856 96.0991 53 95.5391 53C95.2031 53 94.8271 52.976 94.4111 52.928C94.0111 52.864 93.6271 52.728 93.2591 52.52C92.9071 52.296 92.6111 51.96 92.3711 51.512C92.1311 51.064 92.0111 50.448 92.0111 49.664V38.864C92.0111 38.448 92.1471 38.104 92.4191 37.832C92.7071 37.544 93.0591 37.4 93.4751 37.4ZM107.454 40.4H113.142C113.526 40.4 113.846 40.528 114.102 40.784C114.358 41.04 114.486 41.36 114.486 41.744C114.486 42.112 114.358 42.424 114.102 42.68C113.846 42.92 113.526 43.04 113.142 43.04H107.454C107.07 43.04 106.75 42.912 106.494 42.656C106.238 42.4 106.11 42.08 106.11 41.696C106.11 41.328 106.238 41.024 106.494 40.784C106.75 40.528 107.07 40.4 107.454 40.4ZM110.022 37.4C110.438 37.4 110.774 37.544 111.03 37.832C111.302 38.104 111.438 38.448 111.438 38.864V49.544C111.438 49.768 111.478 49.952 111.558 50.096C111.654 50.24 111.774 50.344 111.918 50.408C112.078 50.472 112.246 50.504 112.422 50.504C112.614 50.504 112.79 50.472 112.95 50.408C113.11 50.328 113.294 50.288 113.502 50.288C113.726 50.288 113.926 50.392 114.102 50.6C114.294 50.808 114.39 51.096 114.39 51.464C114.39 51.912 114.142 52.28 113.646 52.568C113.166 52.856 112.646 53 112.086 53C111.75 53 111.374 52.976 110.958 52.928C110.558 52.864 110.174 52.728 109.806 52.52C109.454 52.296 109.158 51.96 108.918 51.512C108.678 51.064 108.558 50.448 108.558 49.664V38.864C108.558 38.448 108.694 38.104 108.966 37.832C109.254 37.544 109.606 37.4 110.022 37.4ZM123.874 39.92C125.026 39.92 125.898 40.168 126.49 40.664C127.098 41.16 127.514 41.824 127.738 42.656C127.962 43.472 128.074 44.384 128.074 45.392V51.536C128.074 51.952 127.938 52.304 127.666 52.592C127.394 52.864 127.05 53 126.634 53C126.218 53 125.874 52.864 125.602 52.592C125.33 52.304 125.194 51.952 125.194 51.536V45.392C125.194 44.864 125.13 44.392 125.002 43.976C124.874 43.544 124.642 43.2 124.306 42.944C123.97 42.688 123.49 42.56 122.866 42.56C122.258 42.56 121.738 42.688 121.306 42.944C120.874 43.2 120.546 43.544 120.322 43.976C120.114 44.392 120.01 44.864 120.01 45.392V51.536C120.01 51.952 119.874 52.304 119.602 52.592C119.33 52.864 118.986 53 118.57 53C118.154 53 117.81 52.864 117.538 52.592C117.266 52.304 117.13 51.952 117.13 51.536V36.704C117.13 36.288 117.266 35.944 117.538 35.672C117.81 35.384 118.154 35.24 118.57 35.24C118.986 35.24 119.33 35.384 119.602 35.672C119.874 35.944 120.01 36.288 120.01 36.704V42.656L119.65 42.584C119.794 42.312 119.994 42.024 120.25 41.72C120.506 41.4 120.818 41.104 121.186 40.832C121.554 40.56 121.962 40.344 122.41 40.184C122.858 40.008 123.346 39.92 123.874 39.92ZM137.241 53.24C135.881 53.24 134.697 52.96 133.689 52.4C132.697 51.824 131.929 51.048 131.385 50.072C130.857 49.096 130.593 47.992 130.593 46.76C130.593 45.32 130.881 44.096 131.457 43.088C132.049 42.064 132.817 41.28 133.761 40.736C134.705 40.192 135.705 39.92 136.761 39.92C137.577 39.92 138.345 40.088 139.065 40.424C139.801 40.76 140.449 41.224 141.009 41.816C141.569 42.392 142.009 43.064 142.329 43.832C142.665 44.6 142.833 45.416 142.833 46.28C142.817 46.664 142.665 46.976 142.377 47.216C142.089 47.456 141.753 47.576 141.369 47.576H132.201L131.481 45.176H140.289L139.761 45.656V45.008C139.729 44.544 139.561 44.128 139.257 43.76C138.969 43.392 138.601 43.104 138.153 42.896C137.721 42.672 137.257 42.56 136.761 42.56C136.281 42.56 135.833 42.624 135.417 42.752C135.001 42.88 134.641 43.096 134.337 43.4C134.033 43.704 133.793 44.112 133.617 44.624C133.441 45.136 133.353 45.784 133.353 46.568C133.353 47.432 133.529 48.168 133.881 48.776C134.249 49.368 134.713 49.824 135.273 50.144C135.849 50.448 136.457 50.6 137.097 50.6C137.689 50.6 138.161 50.552 138.513 50.456C138.865 50.36 139.145 50.248 139.353 50.12C139.577 49.976 139.777 49.856 139.953 49.76C140.241 49.616 140.513 49.544 140.769 49.544C141.121 49.544 141.409 49.664 141.633 49.904C141.873 50.144 141.993 50.424 141.993 50.744C141.993 51.176 141.769 51.568 141.321 51.92C140.905 52.272 140.321 52.584 139.569 52.856C138.817 53.112 138.041 53.24 137.241 53.24ZM159.828 36.2C161.364 36.2 162.508 36.56 163.26 37.28C164.012 38 164.388 39.064 164.388 40.472C164.388 41.224 164.204 41.888 163.836 42.464C163.468 43.024 162.924 43.464 162.204 43.784C161.484 44.088 160.596 44.24 159.54 44.24L159.636 43.16C160.132 43.16 160.7 43.232 161.34 43.376C161.98 43.504 162.596 43.744 163.188 44.096C163.796 44.432 164.292 44.912 164.676 45.536C165.076 46.144 165.276 46.928 165.276 47.888C165.276 48.944 165.1 49.808 164.748 50.48C164.412 51.152 163.964 51.672 163.404 52.04C162.844 52.408 162.244 52.664 161.604 52.808C160.964 52.936 160.348 53 159.756 53H153.78C153.364 53 153.012 52.864 152.724 52.592C152.452 52.304 152.316 51.952 152.316 51.536V37.664C152.316 37.248 152.452 36.904 152.724 36.632C153.012 36.344 153.364 36.2 153.78 36.2H159.828ZM159.396 39.032H155.124L155.436 38.648V42.992L155.148 42.776H159.468C159.932 42.776 160.348 42.624 160.716 42.32C161.084 42.016 161.268 41.576 161.268 41C161.268 40.312 161.092 39.816 160.74 39.512C160.404 39.192 159.956 39.032 159.396 39.032ZM159.588 45.608H155.22L155.436 45.416V50.48L155.196 50.24H159.756C160.492 50.24 161.076 50.048 161.508 49.664C161.94 49.264 162.156 48.672 162.156 47.888C162.156 47.168 162.012 46.648 161.724 46.328C161.436 46.008 161.092 45.808 160.692 45.728C160.292 45.648 159.924 45.608 159.588 45.608ZM173.827 53.24C172.467 53.24 171.283 52.96 170.275 52.4C169.283 51.824 168.515 51.048 167.971 50.072C167.443 49.096 167.179 47.992 167.179 46.76C167.179 45.32 167.467 44.096 168.043 43.088C168.635 42.064 169.403 41.28 170.347 40.736C171.291 40.192 172.291 39.92 173.347 39.92C174.163 39.92 174.931 40.088 175.651 40.424C176.387 40.76 177.035 41.224 177.595 41.816C178.155 42.392 178.595 43.064 178.915 43.832C179.251 44.6 179.419 45.416 179.419 46.28C179.403 46.664 179.251 46.976 178.963 47.216C178.675 47.456 178.339 47.576 177.955 47.576H168.787L168.067 45.176H176.875L176.347 45.656V45.008C176.315 44.544 176.147 44.128 175.843 43.76C175.555 43.392 175.187 43.104 174.739 42.896C174.307 42.672 173.843 42.56 173.347 42.56C172.867 42.56 172.419 42.624 172.003 42.752C171.587 42.88 171.227 43.096 170.923 43.4C170.619 43.704 170.379 44.112 170.203 44.624C170.027 45.136 169.939 45.784 169.939 46.568C169.939 47.432 170.115 48.168 170.467 48.776C170.835 49.368 171.299 49.824 171.859 50.144C172.435 50.448 173.043 50.6 173.683 50.6C174.275 50.6 174.747 50.552 175.099 50.456C175.451 50.36 175.731 50.248 175.939 50.12C176.163 49.976 176.363 49.856 176.539 49.76C176.827 49.616 177.099 49.544 177.355 49.544C177.707 49.544 177.995 49.664 178.219 49.904C178.459 50.144 178.579 50.424 178.579 50.744C178.579 51.176 178.355 51.568 177.907 51.92C177.491 52.272 176.907 52.584 176.155 52.856C175.403 53.112 174.627 53.24 173.827 53.24ZM182.079 40.4H187.767C188.151 40.4 188.471 40.528 188.727 40.784C188.983 41.04 189.111 41.36 189.111 41.744C189.111 42.112 188.983 42.424 188.727 42.68C188.471 42.92 188.151 43.04 187.767 43.04H182.079C181.695 43.04 181.375 42.912 181.119 42.656C180.863 42.4 180.735 42.08 180.735 41.696C180.735 41.328 180.863 41.024 181.119 40.784C181.375 40.528 181.695 40.4 182.079 40.4ZM184.647 37.4C185.063 37.4 185.399 37.544 185.655 37.832C185.927 38.104 186.063 38.448 186.063 38.864V49.544C186.063 49.768 186.103 49.952 186.183 50.096C186.279 50.24 186.399 50.344 186.543 50.408C186.703 50.472 186.871 50.504 187.047 50.504C187.239 50.504 187.415 50.472 187.575 50.408C187.735 50.328 187.919 50.288 188.127 50.288C188.351 50.288 188.551 50.392 188.727 50.6C188.919 50.808 189.015 51.096 189.015 51.464C189.015 51.912 188.767 52.28 188.271 52.568C187.791 52.856 187.271 53 186.711 53C186.375 53 185.999 52.976 185.583 52.928C185.183 52.864 184.799 52.728 184.431 52.52C184.079 52.296 183.783 51.96 183.543 51.512C183.303 51.064 183.183 50.448 183.183 49.664V38.864C183.183 38.448 183.319 38.104 183.591 37.832C183.879 37.544 184.231 37.4 184.647 37.4ZM202.267 39.92C202.683 39.92 203.027 40.056 203.299 40.328C203.571 40.6 203.707 40.952 203.707 41.384V51.536C203.707 51.952 203.571 52.304 203.299 52.592C203.027 52.864 202.683 53 202.267 53C201.851 53 201.507 52.864 201.235 52.592C200.963 52.304 200.827 51.952 200.827 51.536V50.36L201.355 50.576C201.355 50.784 201.243 51.04 201.019 51.344C200.795 51.632 200.491 51.92 200.107 52.208C199.723 52.496 199.267 52.744 198.739 52.952C198.227 53.144 197.667 53.24 197.059 53.24C195.955 53.24 194.955 52.96 194.059 52.4C193.163 51.824 192.451 51.04 191.923 50.048C191.411 49.04 191.155 47.888 191.155 46.592C191.155 45.28 191.411 44.128 191.923 43.136C192.451 42.128 193.155 41.344 194.035 40.784C194.915 40.208 195.891 39.92 196.963 39.92C197.651 39.92 198.283 40.024 198.859 40.232C199.435 40.44 199.931 40.704 200.347 41.024C200.779 41.344 201.107 41.672 201.331 42.008C201.571 42.328 201.691 42.6 201.691 42.824L200.827 43.136V41.384C200.827 40.968 200.963 40.624 201.235 40.352C201.507 40.064 201.851 39.92 202.267 39.92ZM197.419 50.6C198.123 50.6 198.739 50.424 199.267 50.072C199.795 49.72 200.203 49.24 200.491 48.632C200.795 48.024 200.947 47.344 200.947 46.592C200.947 45.824 200.795 45.136 200.491 44.528C200.203 43.92 199.795 43.44 199.267 43.088C198.739 42.736 198.123 42.56 197.419 42.56C196.731 42.56 196.123 42.736 195.595 43.088C195.067 43.44 194.651 43.92 194.347 44.528C194.059 45.136 193.915 45.824 193.915 46.592C193.915 47.344 194.059 48.024 194.347 48.632C194.651 49.24 195.067 49.72 195.595 50.072C196.123 50.424 196.731 50.6 197.419 50.6ZM208.482 47.696C207.938 47.696 207.642 47.392 207.594 46.784L206.898 37.952C206.866 37.456 206.994 37.04 207.282 36.704C207.586 36.368 207.978 36.2 208.458 36.2C208.938 36.2 209.33 36.368 209.634 36.704C209.938 37.04 210.066 37.456 210.018 37.952L209.346 46.784C209.298 47.392 209.01 47.696 208.482 47.696ZM208.314 53C207.85 53 207.49 52.88 207.234 52.64C206.994 52.384 206.874 52.024 206.874 51.56V51.152C206.874 50.688 206.994 50.336 207.234 50.096C207.49 49.84 207.85 49.712 208.314 49.712H208.626C209.09 49.712 209.442 49.84 209.682 50.096C209.938 50.336 210.066 50.688 210.066 51.152V51.56C210.066 52.024 209.938 52.384 209.682 52.64C209.442 52.88 209.09 53 208.626 53H208.314Z" fill="white"/>
</svg>
