<?xml version="1.0" encoding="UTF-8"?>
<svg id="Layer_2" data-name="Layer 2" xmlns="http://www.w3.org/2000/svg" viewBox="0 180 347.9 600.51">
  <defs>
    <style>
      .cls-1 {
        fill: #5f5ff2;
      }

      .cls-1, .cls-2, .cls-3, .cls-4, .cls-5, .cls-6, .cls-7, .cls-8, .cls-9, .cls-10, .cls-11, .cls-12 {
        stroke-width: 0px;
      }

      .cls-2 {
        fill: #701ef5;
      }

      .cls-3 {
        fill: #e1b1fa;
      }

      .cls-4 {
        fill: #d5ccfb;
      }

      .cls-5 {
        fill: #acabf9;
      }

      .cls-6 {
        fill: #b4d6fc;
      }

      .cls-7 {
        fill: #9826f6;
      }

      .cls-8 {
        fill: #9b29ba;
      }

      .cls-9 {
        fill: #7e8ef8;
      }

      .cls-10 {
        fill: #7cc8f2;
      }

      .cls-11 {
        fill: #fff;
      }

      .cls-12 {
        fill: #eef6fe;
      }
    </style>
  </defs>
  <g id="full_open_no_letters">
    <g>
      <path class="cls-12" d="m174.13,173.4h-.23s-.2,0-.2,0h0s-53.04-.05-53.04-.05c-6.77,0-12.26,5.51-12.29,12.33-.03,8.67-.06,17.35-.09,26.02.03,3.75-1.51,11.51-6.93,19.41-2.35,3.4-7.22,6.85-10.77,8.93-8.89,5.19-26.76,13.79-38.26,30.95-7.54,11.26-11.11,22.86-11.8,33.2-.27,4.02,0,6.69,0,10.72l.02,178.88c.39,4.14,2.92,27.01,22.95,43.2,17.72,14.32,37.32,13.86,42.17,13.61h68.27s68.29,0,68.29,0c4.86.25,24.45.71,42.17-13.62,20.03-16.19,22.56-39.06,22.94-43.2v-178.88c0-4.03.27-6.7,0-10.72-.69-10.34-4.25-21.94-11.8-33.2-11.5-17.16-29.38-25.76-38.26-30.95-3.56-2.08-8.43-5.53-10.77-8.93-5.43-7.9-6.97-15.65-6.94-19.41-.03-8.67-.06-17.35-.09-26.02-.02-6.82-5.52-12.34-12.29-12.33l-53.04.05h0Z"/>
      <path class="cls-9" d="m339.76,259.05c-3.87-8.61-8.88-18.52-17.01-27.64-9.04-10.15-16.51-18.66-32.72-27.57-1.17-.64-7.88-5.07-9.94-6.02-1.49-.69-3.73-2.34-4.9-3.85-2.27-2.94-1.94-7.65-2.01-10.3l-.03-20.98v3.17c-.06-16.48-8.15-28.76-24.63-28.76-22.56,0-53.7-.02-74.3-.03h0c-.08,0-.17,0-.25,0-.11,0-.22,0-.33,0h0c-20.6.01-51.74.03-74.3.04-16.48,0-24.57,12.29-24.62,28.77v-3.17s-.03,20.98-.03,20.98c-.06,2.65.26,7.36-2,10.3-1.17,1.51-3.4,3.16-4.9,3.85-2.06.95-8.77,5.38-9.94,6.02-16.21,8.91-23.68,17.42-32.72,27.57-8.08,9.07-13.08,18.92-16.94,27.5C2.79,270.95,0,283.99,0,297.17l.03,222.64c0,13.21,2.97,26.31,9.08,38.02,3.67,7.03,8.82,14.38,16.07,21.15,24.57,22.95,54.55,21.71,59.76,21.41h89.01s.01-29.27.01-29.27l.02,29.26h89.01c5.21.3,35.19,1.53,59.76-21.42,7.25-6.77,12.4-14.13,16.07-21.15,6.11-11.71,9.08-24.81,9.08-38.02v-222.64c0-13.13-2.75-26.12-8.14-38.1Zm-31.93,55.18v171.86c0,11.14-2.69,22.17-8.21,31.86-3.37,5.91-8.12,12.03-14.82,17.4-17.78,14.26-37.45,13.81-42.32,13.56H105.45c-4.87.26-24.54.72-42.32-13.54-6.7-5.37-11.45-11.49-14.82-17.4-5.51-9.68-8.21-20.71-8.21-31.85l-.02-171.86c0-4.01-.27-6.67,0-10.68.69-10.29,4.27-21.84,11.84-33.05,11.54-17.09,29.48-25.65,38.4-30.82,3.57-2.07,8.46-5.5,10.81-8.89,5.45-7.86,6.99-15.58,6.96-19.32.03-8.64.06-17.27.09-25.91.02-6.79,5.54-12.28,12.33-12.28l53.23.05h0s.2,0,.2,0h.23s0,0,0,0l53.23-.05c6.79,0,12.31,5.48,12.33,12.27.03,8.64.06,17.27.09,25.91-.03,3.74,1.51,11.46,6.96,19.32,2.35,3.38,7.24,6.82,10.81,8.89,8.92,5.17,26.86,13.73,38.4,30.81,7.57,11.21,11.15,22.76,11.84,33.05.27,4.01,0,6.66,0,10.68Z"/>
    </g>
    <circle class="cls-5" cx="260.54" cy="429.42" r="38.21"/>
    <circle class="cls-4" cx="87.58" cy="433.06" r="33.28"/>
    <circle class="cls-2" cx="172.65" cy="485.1" r="58.64"/>
    <circle class="cls-6" cx="190.7" cy="378.49" r="42.73"/>
    <circle class="cls-7" cx="85.28" cy="499.82" r="23.57"/>
    <circle class="cls-10" cx="79.57" cy="323.12" r="25.02"/>
    <circle class="cls-8" cx="267.43" cy="358.56" r="30.15"/>
    <circle class="cls-3" cx="263.02" cy="499.82" r="29.58"/>
    <circle class="cls-1" cx="115.27" cy="371.85" r="27.68"/>
    <path class="cls-12" d="m253.33,244.17c.68.37,1.38.76,2.1,1.18-2.8-1.27-5.32-3.04-7.44-5.2,2.03,1.81,4.05,3.32,5.34,4.02Z"/>
    <path class="cls-12" d="m97.81,242.51c.75-.57,1.56-1.25,2.38-1.98-.75.71-1.55,1.37-2.38,1.98Z"/>
  </g>
</svg>