<svg width="291" height="85" viewBox="0 0 291 85" fill="none" xmlns="http://www.w3.org/2000/svg">
<path d="M1.07397 46.6667C1.07389 63.8209 8.88547 79.2593 14.9558 85H276.339C290.05 73.8889 291.693 54.8148 290.8 46.6667C289.515 13.3333 260.27 1.66667 245.808 0H43.8794C13.4227 5.37975 1.07408 26.3608 1.07397 46.6667Z" fill="#701EF5"/>
<path d="M256.969 35.8741C249.146 23.3294 232.967 20.4919 225.856 20.6412C222.655 19.2075 222.152 16.4597 222.3 15.265C222.3 12.0392 227.633 10.934 230.3 10.7847C257.68 10.0678 265.71 24.8229 266.303 32.29C264.88 39.8168 259.487 37.8156 256.969 35.8741Z" fill="white"/>
<path d="M55.7266 56.4425C54.8146 56.4425 53.9666 56.2585 53.1826 55.8905C52.3986 55.5225 51.7586 54.9945 51.2626 54.3065C51.0706 54.0185 50.9746 53.7385 50.9746 53.4665C50.9746 53.0665 51.1266 52.7305 51.4306 52.4585C51.7506 52.1865 52.0626 52.0505 52.3666 52.0505C52.6066 52.0505 52.8386 52.1225 53.0626 52.2665C53.3026 52.4105 53.5186 52.5785 53.7106 52.7705C54.0306 53.0585 54.3426 53.2665 54.6466 53.3945C54.9666 53.5065 55.3266 53.5625 55.7266 53.5625C56.2066 53.5625 56.6546 53.4425 57.0706 53.2025C57.4866 52.9625 57.8226 52.6425 58.0786 52.2425C58.3346 51.8425 58.4626 51.4105 58.4626 50.9465V40.8665C58.4626 40.4505 58.6146 40.1065 58.9186 39.8345C59.2226 39.5465 59.5746 39.4025 59.9746 39.4025C60.4226 39.4025 60.7826 39.5465 61.0546 39.8345C61.3266 40.1065 61.4626 40.4505 61.4626 40.8665V50.9465C61.4626 51.9225 61.2066 52.8265 60.6946 53.6585C60.1826 54.4905 59.4946 55.1625 58.6306 55.6745C57.7666 56.1865 56.7986 56.4425 55.7266 56.4425ZM77.2728 49.7945C77.2728 51.1065 76.9768 52.2665 76.3848 53.2745C75.8088 54.2665 75.0248 55.0425 74.0328 55.6025C73.0568 56.1625 71.9608 56.4425 70.7448 56.4425C69.5288 56.4425 68.4248 56.1625 67.4328 55.6025C66.4568 55.0425 65.6728 54.2665 65.0808 53.2745C64.5048 52.2665 64.2168 51.1065 64.2168 49.7945C64.2168 48.4825 64.5048 47.3305 65.0808 46.3385C65.6728 45.3305 66.4568 44.5465 67.4328 43.9865C68.4248 43.4105 69.5288 43.1225 70.7448 43.1225C71.9608 43.1225 73.0568 43.4105 74.0328 43.9865C75.0248 44.5465 75.8088 45.3305 76.3848 46.3385C76.9768 47.3305 77.2728 48.4825 77.2728 49.7945ZM74.3928 49.7945C74.3928 48.9785 74.2248 48.2745 73.8888 47.6825C73.5688 47.0745 73.1288 46.6025 72.5688 46.2665C72.0248 45.9305 71.4168 45.7625 70.7448 45.7625C70.0728 45.7625 69.4568 45.9305 68.8968 46.2665C68.3528 46.6025 67.9128 47.0745 67.5768 47.6825C67.2568 48.2745 67.0968 48.9785 67.0968 49.7945C67.0968 50.5945 67.2568 51.2985 67.5768 51.9065C67.9128 52.4985 68.3528 52.9625 68.8968 53.2985C69.4568 53.6345 70.0728 53.8025 70.7448 53.8025C71.4168 53.8025 72.0248 53.6345 72.5688 53.2985C73.1288 52.9625 73.5688 52.4985 73.8888 51.9065C74.2248 51.2985 74.3928 50.5945 74.3928 49.7945ZM82.5054 54.7385C82.5054 55.1545 82.3694 55.5065 82.0974 55.7945C81.8254 56.0665 81.4814 56.2025 81.0654 56.2025C80.6494 56.2025 80.3054 56.0665 80.0334 55.7945C79.7614 55.5065 79.6254 55.1545 79.6254 54.7385V44.8265C79.6254 44.4105 79.7614 44.0665 80.0334 43.7945C80.3054 43.5065 80.6494 43.3625 81.0654 43.3625C81.4814 43.3625 81.8254 43.5065 82.0974 43.7945C82.3694 44.0665 82.5054 44.4105 82.5054 44.8265V54.7385ZM81.0414 41.8025C80.4974 41.8025 80.1134 41.7145 79.8894 41.5385C79.6654 41.3625 79.5534 41.0505 79.5534 40.6025V40.1465C79.5534 39.6825 79.6734 39.3705 79.9134 39.2105C80.1694 39.0345 80.5534 38.9465 81.0654 38.9465C81.6254 38.9465 82.0174 39.0345 82.2414 39.2105C82.4654 39.3865 82.5774 39.6985 82.5774 40.1465V40.6025C82.5774 41.0665 82.4574 41.3865 82.2174 41.5625C81.9774 41.7225 81.5854 41.8025 81.0414 41.8025ZM92.3293 43.1225C93.5133 43.1225 94.4093 43.3705 95.0173 43.8665C95.6413 44.3625 96.0653 45.0265 96.2893 45.8585C96.5293 46.6745 96.6493 47.5865 96.6493 48.5945V54.7385C96.6493 55.1545 96.5133 55.5065 96.2413 55.7945C95.9693 56.0665 95.6253 56.2025 95.2093 56.2025C94.7933 56.2025 94.4493 56.0665 94.1773 55.7945C93.9053 55.5065 93.7693 55.1545 93.7693 54.7385V48.5945C93.7693 48.0665 93.6973 47.5945 93.5533 47.1785C93.4253 46.7465 93.1853 46.4025 92.8333 46.1465C92.4813 45.8905 91.9773 45.7625 91.3213 45.7625C90.6813 45.7625 90.1373 45.8905 89.6893 46.1465C89.2573 46.4025 88.9213 46.7465 88.6813 47.1785C88.4573 47.5945 88.3453 48.0665 88.3453 48.5945V54.7385C88.3453 55.1545 88.2093 55.5065 87.9373 55.7945C87.6653 56.0665 87.3213 56.2025 86.9053 56.2025C86.4893 56.2025 86.1453 56.0665 85.8733 55.7945C85.6013 55.5065 85.4653 55.1545 85.4653 54.7385V44.8265C85.4653 44.4105 85.6013 44.0665 85.8733 43.7945C86.1453 43.5065 86.4893 43.3625 86.9053 43.3625C87.3213 43.3625 87.6653 43.5065 87.9373 43.7945C88.2093 44.0665 88.3453 44.4105 88.3453 44.8265V45.8585L87.9853 45.7865C88.1293 45.5145 88.3373 45.2265 88.6093 44.9225C88.8813 44.6025 89.2013 44.3065 89.5693 44.0345C89.9373 43.7625 90.3533 43.5465 90.8173 43.3865C91.2813 43.2105 91.7853 43.1225 92.3293 43.1225ZM122.185 47.8025C122.185 49.0025 121.985 50.1225 121.585 51.1625C121.185 52.2025 120.617 53.1225 119.881 53.9225C119.161 54.7065 118.297 55.3225 117.289 55.7705C116.297 56.2185 115.209 56.4425 114.025 56.4425C112.841 56.4425 111.753 56.2185 110.761 55.7705C109.769 55.3225 108.905 54.7065 108.169 53.9225C107.449 53.1225 106.889 52.2025 106.489 51.1625C106.089 50.1225 105.889 49.0025 105.889 47.8025C105.889 46.6025 106.089 45.4825 106.489 44.4425C106.889 43.4025 107.449 42.4905 108.169 41.7065C108.905 40.9065 109.769 40.2825 110.761 39.8345C111.753 39.3865 112.841 39.1625 114.025 39.1625C115.209 39.1625 116.297 39.3865 117.289 39.8345C118.297 40.2825 119.161 40.9065 119.881 41.7065C120.617 42.4905 121.185 43.4025 121.585 44.4425C121.985 45.4825 122.185 46.6025 122.185 47.8025ZM119.065 47.8025C119.065 46.7305 118.849 45.7625 118.417 44.8985C117.985 44.0185 117.393 43.3225 116.641 42.8105C115.889 42.2985 115.017 42.0425 114.025 42.0425C113.033 42.0425 112.161 42.2985 111.409 42.8105C110.657 43.3225 110.065 44.0105 109.633 44.8745C109.217 45.7385 109.009 46.7145 109.009 47.8025C109.009 48.8745 109.217 49.8505 109.633 50.7305C110.065 51.5945 110.657 52.2825 111.409 52.7945C112.161 53.3065 113.033 53.5625 114.025 53.5625C115.017 53.5625 115.889 53.3065 116.641 52.7945C117.393 52.2825 117.985 51.5945 118.417 50.7305C118.849 49.8505 119.065 48.8745 119.065 47.8025ZM134.228 43.3625C134.644 43.3625 134.988 43.5065 135.26 43.7945C135.532 44.0665 135.668 44.4105 135.668 44.8265V50.9225C135.668 52.6185 135.196 53.9625 134.252 54.9545C133.308 55.9465 131.948 56.4425 130.172 56.4425C128.396 56.4425 127.036 55.9465 126.092 54.9545C125.164 53.9625 124.7 52.6185 124.7 50.9225V44.8265C124.7 44.4105 124.836 44.0665 125.108 43.7945C125.38 43.5065 125.724 43.3625 126.14 43.3625C126.556 43.3625 126.9 43.5065 127.172 43.7945C127.444 44.0665 127.58 44.4105 127.58 44.8265V50.9225C127.58 51.8985 127.796 52.6265 128.228 53.1065C128.66 53.5705 129.308 53.8025 130.172 53.8025C131.052 53.8025 131.708 53.5705 132.14 53.1065C132.572 52.6265 132.788 51.8985 132.788 50.9225V44.8265C132.788 44.4105 132.924 44.0665 133.196 43.7945C133.468 43.5065 133.812 43.3625 134.228 43.3625ZM140.226 56.2025C139.81 56.2025 139.466 56.0665 139.194 55.7945C138.922 55.5065 138.786 55.1545 138.786 54.7385V44.8265C138.786 44.4105 138.922 44.0665 139.194 43.7945C139.466 43.5065 139.81 43.3625 140.226 43.3625C140.642 43.3625 140.986 43.5065 141.258 43.7945C141.53 44.0665 141.666 44.4105 141.666 44.8265V47.0825L141.498 45.4745C141.674 45.0905 141.898 44.7545 142.17 44.4665C142.458 44.1625 142.778 43.9145 143.13 43.7225C143.482 43.5145 143.858 43.3625 144.258 43.2665C144.658 43.1705 145.058 43.1225 145.458 43.1225C145.938 43.1225 146.338 43.2585 146.658 43.5305C146.994 43.8025 147.162 44.1225 147.162 44.4905C147.162 45.0185 147.026 45.4025 146.754 45.6425C146.482 45.8665 146.186 45.9785 145.866 45.9785C145.562 45.9785 145.282 45.9225 145.026 45.8105C144.786 45.6985 144.506 45.6425 144.186 45.6425C143.898 45.6425 143.602 45.7145 143.298 45.8585C143.01 45.9865 142.738 46.1945 142.482 46.4825C142.242 46.7705 142.042 47.1305 141.882 47.5625C141.738 47.9785 141.666 48.4745 141.666 49.0505V54.7385C141.666 55.1545 141.53 55.5065 141.258 55.7945C140.986 56.0665 140.642 56.2025 140.226 56.2025ZM175.046 39.3305C175.414 39.3305 175.766 39.4745 176.102 39.7625C176.438 40.0345 176.606 40.4105 176.606 40.8905C176.606 41.0345 176.582 41.1945 176.534 41.3705L171.806 55.2905C171.71 55.5785 171.534 55.8025 171.278 55.9625C171.038 56.1065 170.782 56.1865 170.51 56.2025C170.238 56.2025 169.966 56.1225 169.694 55.9625C169.438 55.8025 169.238 55.5705 169.094 55.2665L165.542 47.2025L165.758 47.3465L162.254 55.2665C162.11 55.5705 161.902 55.8025 161.63 55.9625C161.374 56.1225 161.11 56.2025 160.838 56.2025C160.582 56.1865 160.326 56.1065 160.07 55.9625C159.814 55.8025 159.638 55.5785 159.542 55.2905L154.814 41.3705C154.766 41.1945 154.742 41.0345 154.742 40.8905C154.742 40.4105 154.91 40.0345 155.246 39.7625C155.598 39.4745 155.958 39.3305 156.326 39.3305C156.63 39.3305 156.91 39.4105 157.166 39.5705C157.438 39.7305 157.622 39.9625 157.718 40.2665L161.534 51.8345L161.006 51.8105L164.414 43.6265C164.542 43.3385 164.726 43.1145 164.966 42.9545C165.206 42.7785 165.478 42.6985 165.782 42.7145C166.086 42.6985 166.358 42.7785 166.598 42.9545C166.838 43.1145 167.014 43.3385 167.126 43.6265L170.246 51.4505L169.862 51.6905L173.63 40.2665C173.726 39.9625 173.91 39.7305 174.182 39.5705C174.454 39.4105 174.742 39.3305 175.046 39.3305ZM188.86 43.1225C189.276 43.1225 189.62 43.2585 189.892 43.5305C190.164 43.8025 190.3 44.1545 190.3 44.5865V54.7385C190.3 55.1545 190.164 55.5065 189.892 55.7945C189.62 56.0665 189.276 56.2025 188.86 56.2025C188.444 56.2025 188.1 56.0665 187.828 55.7945C187.556 55.5065 187.42 55.1545 187.42 54.7385V53.5625L187.948 53.7785C187.948 53.9865 187.836 54.2425 187.612 54.5465C187.388 54.8345 187.084 55.1225 186.7 55.4105C186.316 55.6985 185.86 55.9465 185.332 56.1545C184.82 56.3465 184.26 56.4425 183.652 56.4425C182.548 56.4425 181.548 56.1625 180.652 55.6025C179.756 55.0265 179.044 54.2425 178.516 53.2505C178.004 52.2425 177.748 51.0905 177.748 49.7945C177.748 48.4825 178.004 47.3305 178.516 46.3385C179.044 45.3305 179.748 44.5465 180.628 43.9865C181.508 43.4105 182.484 43.1225 183.556 43.1225C184.244 43.1225 184.876 43.2265 185.452 43.4345C186.028 43.6425 186.524 43.9065 186.94 44.2265C187.372 44.5465 187.7 44.8745 187.924 45.2105C188.164 45.5305 188.284 45.8025 188.284 46.0265L187.42 46.3385V44.5865C187.42 44.1705 187.556 43.8265 187.828 43.5545C188.1 43.2665 188.444 43.1225 188.86 43.1225ZM184.012 53.8025C184.716 53.8025 185.332 53.6265 185.86 53.2745C186.388 52.9225 186.796 52.4425 187.084 51.8345C187.388 51.2265 187.54 50.5465 187.54 49.7945C187.54 49.0265 187.388 48.3385 187.084 47.7305C186.796 47.1225 186.388 46.6425 185.86 46.2905C185.332 45.9385 184.716 45.7625 184.012 45.7625C183.324 45.7625 182.716 45.9385 182.188 46.2905C181.66 46.6425 181.244 47.1225 180.94 47.7305C180.652 48.3385 180.508 49.0265 180.508 49.7945C180.508 50.5465 180.652 51.2265 180.94 51.8345C181.244 52.4425 181.66 52.9225 182.188 53.2745C182.716 53.6265 183.324 53.8025 184.012 53.8025ZM196.13 54.7385C196.13 55.1545 195.994 55.5065 195.722 55.7945C195.45 56.0665 195.106 56.2025 194.69 56.2025C194.274 56.2025 193.93 56.0665 193.658 55.7945C193.386 55.5065 193.25 55.1545 193.25 54.7385V44.8265C193.25 44.4105 193.386 44.0665 193.658 43.7945C193.93 43.5065 194.274 43.3625 194.69 43.3625C195.106 43.3625 195.45 43.5065 195.722 43.7945C195.994 44.0665 196.13 44.4105 196.13 44.8265V54.7385ZM194.666 41.8025C194.122 41.8025 193.738 41.7145 193.514 41.5385C193.29 41.3625 193.178 41.0505 193.178 40.6025V40.1465C193.178 39.6825 193.298 39.3705 193.538 39.2105C193.794 39.0345 194.178 38.9465 194.69 38.9465C195.25 38.9465 195.642 39.0345 195.866 39.2105C196.09 39.3865 196.202 39.6985 196.202 40.1465V40.6025C196.202 41.0665 196.082 41.3865 195.842 41.5625C195.602 41.7225 195.21 41.8025 194.666 41.8025ZM199.234 43.6025H204.922C205.306 43.6025 205.626 43.7305 205.882 43.9865C206.138 44.2425 206.266 44.5625 206.266 44.9465C206.266 45.3145 206.138 45.6265 205.882 45.8825C205.626 46.1225 205.306 46.2425 204.922 46.2425H199.234C198.85 46.2425 198.53 46.1145 198.274 45.8585C198.018 45.6025 197.89 45.2825 197.89 44.8985C197.89 44.5305 198.018 44.2265 198.274 43.9865C198.53 43.7305 198.85 43.6025 199.234 43.6025ZM201.802 40.6025C202.218 40.6025 202.554 40.7465 202.81 41.0345C203.082 41.3065 203.218 41.6505 203.218 42.0665V52.7465C203.218 52.9705 203.258 53.1545 203.338 53.2985C203.434 53.4425 203.554 53.5465 203.698 53.6105C203.858 53.6745 204.026 53.7065 204.202 53.7065C204.394 53.7065 204.57 53.6745 204.73 53.6105C204.89 53.5305 205.074 53.4905 205.282 53.4905C205.506 53.4905 205.706 53.5945 205.882 53.8025C206.074 54.0105 206.17 54.2985 206.17 54.6665C206.17 55.1145 205.922 55.4825 205.426 55.7705C204.946 56.0585 204.426 56.2025 203.866 56.2025C203.53 56.2025 203.154 56.1785 202.738 56.1305C202.338 56.0665 201.954 55.9305 201.586 55.7225C201.234 55.4985 200.938 55.1625 200.698 54.7145C200.458 54.2665 200.338 53.6505 200.338 52.8665V42.0665C200.338 41.6505 200.474 41.3065 200.746 41.0345C201.034 40.7465 201.386 40.6025 201.802 40.6025ZM212.031 54.7385C212.031 55.1545 211.887 55.5065 211.599 55.7945C211.327 56.0665 210.983 56.2025 210.567 56.2025C210.167 56.2025 209.831 56.0665 209.559 55.7945C209.287 55.5065 209.151 55.1545 209.151 54.7385V39.9065C209.151 39.4905 209.287 39.1465 209.559 38.8745C209.847 38.5865 210.199 38.4425 210.615 38.4425C211.031 38.4425 211.367 38.5865 211.623 38.8745C211.895 39.1465 212.031 39.4905 212.031 39.9065V54.7385ZM218.091 54.7385C218.091 55.1545 217.955 55.5065 217.683 55.7945C217.411 56.0665 217.067 56.2025 216.651 56.2025C216.235 56.2025 215.891 56.0665 215.619 55.7945C215.347 55.5065 215.211 55.1545 215.211 54.7385V44.8265C215.211 44.4105 215.347 44.0665 215.619 43.7945C215.891 43.5065 216.235 43.3625 216.651 43.3625C217.067 43.3625 217.411 43.5065 217.683 43.7945C217.955 44.0665 218.091 44.4105 218.091 44.8265V54.7385ZM216.627 41.8025C216.083 41.8025 215.699 41.7145 215.475 41.5385C215.251 41.3625 215.139 41.0505 215.139 40.6025V40.1465C215.139 39.6825 215.259 39.3705 215.499 39.2105C215.755 39.0345 216.139 38.9465 216.651 38.9465C217.211 38.9465 217.603 39.0345 217.827 39.2105C218.051 39.3865 218.163 39.6985 218.163 40.1465V40.6025C218.163 41.0665 218.043 41.3865 217.803 41.5625C217.563 41.7225 217.171 41.8025 216.627 41.8025ZM220.307 54.2105C220.147 53.9865 220.075 53.6985 220.091 53.3465C220.107 52.9945 220.315 52.6905 220.715 52.4345C220.971 52.2745 221.243 52.2105 221.531 52.2425C221.819 52.2585 222.099 52.4025 222.371 52.6745C222.835 53.1385 223.323 53.4985 223.835 53.7545C224.347 54.0105 224.987 54.1385 225.755 54.1385C225.995 54.1225 226.259 54.0905 226.547 54.0425C226.835 53.9785 227.083 53.8505 227.291 53.6585C227.515 53.4505 227.627 53.1385 227.627 52.7225C227.627 52.3705 227.507 52.0905 227.267 51.8825C227.027 51.6745 226.707 51.4985 226.307 51.3545C225.923 51.2105 225.491 51.0745 225.011 50.9465C224.515 50.8025 224.003 50.6425 223.475 50.4665C222.963 50.2905 222.491 50.0665 222.059 49.7945C221.627 49.5065 221.275 49.1305 221.003 48.6665C220.731 48.2025 220.595 47.6185 220.595 46.9145C220.595 46.1145 220.819 45.4345 221.267 44.8745C221.715 44.3145 222.291 43.8825 222.995 43.5785C223.715 43.2745 224.467 43.1225 225.251 43.1225C225.747 43.1225 226.267 43.1865 226.811 43.3145C227.355 43.4265 227.875 43.6185 228.371 43.8905C228.867 44.1465 229.283 44.4905 229.619 44.9225C229.795 45.1625 229.899 45.4505 229.931 45.7865C229.963 46.1225 229.811 46.4265 229.475 46.6985C229.235 46.8905 228.955 46.9785 228.635 46.9625C228.315 46.9305 228.051 46.8185 227.843 46.6265C227.571 46.2745 227.203 45.9945 226.739 45.7865C226.291 45.5785 225.771 45.4745 225.179 45.4745C224.939 45.4745 224.675 45.5065 224.387 45.5705C224.115 45.6185 223.875 45.7385 223.667 45.9305C223.459 46.1065 223.355 46.3945 223.355 46.7945C223.355 47.1625 223.475 47.4585 223.715 47.6825C223.955 47.8905 224.275 48.0665 224.675 48.2105C225.091 48.3385 225.531 48.4665 225.995 48.5945C226.475 48.7225 226.963 48.8745 227.459 49.0505C227.955 49.2265 228.411 49.4585 228.827 49.7465C229.243 50.0345 229.579 50.4105 229.835 50.8745C230.091 51.3225 230.219 51.8985 230.219 52.6025C230.219 53.4185 229.979 54.1145 229.499 54.6905C229.019 55.2665 228.419 55.7065 227.699 56.0105C226.979 56.2985 226.243 56.4425 225.491 56.4425C224.547 56.4425 223.603 56.2825 222.659 55.9625C221.715 55.6265 220.931 55.0425 220.307 54.2105ZM232.773 43.6025H238.461C238.845 43.6025 239.165 43.7305 239.421 43.9865C239.677 44.2425 239.805 44.5625 239.805 44.9465C239.805 45.3145 239.677 45.6265 239.421 45.8825C239.165 46.1225 238.845 46.2425 238.461 46.2425H232.773C232.389 46.2425 232.069 46.1145 231.813 45.8585C231.557 45.6025 231.429 45.2825 231.429 44.8985C231.429 44.5305 231.557 44.2265 231.813 43.9865C232.069 43.7305 232.389 43.6025 232.773 43.6025ZM235.341 40.6025C235.757 40.6025 236.093 40.7465 236.349 41.0345C236.621 41.3065 236.757 41.6505 236.757 42.0665V52.7465C236.757 52.9705 236.797 53.1545 236.877 53.2985C236.973 53.4425 237.093 53.5465 237.237 53.6105C237.397 53.6745 237.565 53.7065 237.741 53.7065C237.933 53.7065 238.109 53.6745 238.269 53.6105C238.429 53.5305 238.613 53.4905 238.821 53.4905C239.045 53.4905 239.245 53.5945 239.421 53.8025C239.613 54.0105 239.709 54.2985 239.709 54.6665C239.709 55.1145 239.461 55.4825 238.965 55.7705C238.485 56.0585 237.965 56.2025 237.405 56.2025C237.069 56.2025 236.693 56.1785 236.277 56.1305C235.877 56.0665 235.493 55.9305 235.125 55.7225C234.773 55.4985 234.477 55.1625 234.237 54.7145C233.997 54.2665 233.877 53.6505 233.877 52.8665V42.0665C233.877 41.6505 234.013 41.3065 234.285 41.0345C234.573 40.7465 234.925 40.6025 235.341 40.6025Z" fill="white"/>
</svg>
