<svg width="56" height="56" viewBox="0 0 56 56" fill="none" xmlns="http://www.w3.org/2000/svg">
<rect x="3" y="3" width="50" height="50" rx="7" fill="#701EF5" stroke="#701EF5" stroke-width="6"/>
<path d="M18.0273 41.316C18.0273 42.0787 17.778 42.724 17.2793 43.252C16.7806 43.7507 16.15 44 15.3873 44C14.6246 44 13.994 43.7507 13.4953 43.252C12.9966 42.724 12.7473 42.0787 12.7473 41.316V23.144C12.7473 22.3813 12.9966 21.7507 13.4953 21.252C13.994 20.724 14.6246 20.46 15.3873 20.46C16.15 20.46 16.7806 20.724 17.2793 21.252C17.778 21.7507 18.0273 22.3813 18.0273 23.144V41.316ZM15.3433 17.6C14.346 17.6 13.642 17.4387 13.2313 17.116C12.8206 16.7933 12.6153 16.2213 12.6153 15.4V14.564C12.6153 13.7133 12.8353 13.1413 13.2753 12.848C13.7446 12.5253 14.4486 12.364 15.3873 12.364C16.414 12.364 17.1326 12.5253 17.5433 12.848C17.954 13.1707 18.1593 13.7427 18.1593 14.564V15.4C18.1593 16.2507 17.9393 16.8373 17.4993 17.16C17.0593 17.4533 16.3406 17.6 15.3433 17.6ZM36.0378 20.02C38.2084 20.02 39.8511 20.4747 40.9658 21.384C42.1098 22.2933 42.8871 23.5107 43.2978 25.036C43.7378 26.532 43.9578 28.204 43.9578 30.052V41.316C43.9578 42.0787 43.7084 42.724 43.2097 43.252C42.7111 43.7507 42.0804 44 41.3178 44C40.5551 44 39.9244 43.7507 39.4258 43.252C38.9271 42.724 38.6778 42.0787 38.6778 41.316V30.052C38.6778 29.084 38.5458 28.2187 38.2818 27.456C38.0471 26.664 37.6071 26.0333 36.9618 25.564C36.3164 25.0947 35.3924 24.86 34.1898 24.86C33.0164 24.86 32.0191 25.0947 31.1978 25.564C30.4058 26.0333 29.7898 26.664 29.3498 27.456C28.9391 28.2187 28.7338 29.084 28.7338 30.052V41.316C28.7338 42.0787 28.4844 42.724 27.9858 43.252C27.4871 43.7507 26.8564 44 26.0938 44C25.3311 44 24.7004 43.7507 24.2018 43.252C23.7031 42.724 23.4538 42.0787 23.4538 41.316V23.144C23.4538 22.3813 23.7031 21.7507 24.2018 21.252C24.7004 20.724 25.3311 20.46 26.0938 20.46C26.8564 20.46 27.4871 20.724 27.9858 21.252C28.4844 21.7507 28.7338 22.3813 28.7338 23.144V25.036L28.0738 24.904C28.3378 24.4053 28.7191 23.8773 29.2178 23.32C29.7164 22.7333 30.3031 22.1907 30.9778 21.692C31.6524 21.1933 32.4151 20.7973 33.2658 20.504C34.1164 20.1813 35.0404 20.02 36.0378 20.02Z" fill="#D5CCFB"/>
</svg>
