<svg width="271" height="79" viewBox="0 0 271 79" fill="none" xmlns="http://www.w3.org/2000/svg">
<path d="M1.00012 43.3725C1.00004 59.3159 8.27474 73.6645 13.9279 79H257.346C270.116 68.6732 271.645 50.9455 270.814 43.3725C269.617 12.3922 242.382 1.54902 228.914 0H40.8636C12.5001 5 1.00022 24.5 1.00012 43.3725Z" fill="#701EF5"/>
<path d="M239.308 33.3419C232.022 21.6826 216.956 19.0454 210.333 19.1842C207.352 17.8517 206.883 15.2978 207.021 14.1874C207.021 11.1894 211.988 10.1622 214.472 10.0234C239.97 9.35718 247.448 23.0707 248 30.0107C246.675 37.0062 241.653 35.1463 239.308 33.3419Z" fill="white"/>
<path d="M26.5898 36.2C27.7418 36.2 28.7658 36.416 29.6618 36.848C30.5578 37.28 31.3098 37.888 31.9178 38.672C32.5418 39.44 33.0058 40.336 33.3098 41.36C33.6298 42.368 33.7898 43.448 33.7898 44.6C33.7898 46.152 33.5098 47.568 32.9498 48.848C32.3898 50.112 31.5738 51.12 30.5018 51.872C29.4458 52.624 28.1418 53 26.5898 53H20.8538C20.4378 53 20.0858 52.864 19.7978 52.592C19.5258 52.304 19.3898 51.952 19.3898 51.536V37.664C19.3898 37.248 19.5258 36.904 19.7978 36.632C20.0858 36.344 20.4378 36.2 20.8538 36.2H26.5898ZM26.3498 50.24C27.3578 50.24 28.1818 49.984 28.8218 49.472C29.4618 48.944 29.9258 48.256 30.2138 47.408C30.5178 46.544 30.6698 45.608 30.6698 44.6C30.6698 43.848 30.5818 43.136 30.4058 42.464C30.2458 41.776 29.9898 41.176 29.6378 40.664C29.2858 40.136 28.8378 39.72 28.2938 39.416C27.7498 39.112 27.1018 38.96 26.3498 38.96H22.1498L22.3898 38.744V50.504L22.2458 50.24H26.3498ZM48.9496 46.592C48.9496 47.904 48.6536 49.064 48.0616 50.072C47.4856 51.064 46.7016 51.84 45.7096 52.4C44.7336 52.96 43.6376 53.24 42.4216 53.24C41.2056 53.24 40.1016 52.96 39.1096 52.4C38.1336 51.84 37.3496 51.064 36.7576 50.072C36.1816 49.064 35.8936 47.904 35.8936 46.592C35.8936 45.28 36.1816 44.128 36.7576 43.136C37.3496 42.128 38.1336 41.344 39.1096 40.784C40.1016 40.208 41.2056 39.92 42.4216 39.92C43.6376 39.92 44.7336 40.208 45.7096 40.784C46.7016 41.344 47.4856 42.128 48.0616 43.136C48.6536 44.128 48.9496 45.28 48.9496 46.592ZM46.0696 46.592C46.0696 45.776 45.9016 45.072 45.5656 44.48C45.2456 43.872 44.8056 43.4 44.2456 43.064C43.7016 42.728 43.0936 42.56 42.4216 42.56C41.7496 42.56 41.1336 42.728 40.5736 43.064C40.0296 43.4 39.5896 43.872 39.2536 44.48C38.9336 45.072 38.7736 45.776 38.7736 46.592C38.7736 47.392 38.9336 48.096 39.2536 48.704C39.5896 49.296 40.0296 49.76 40.5736 50.096C41.1336 50.432 41.7496 50.6 42.4216 50.6C43.0936 50.6 43.7016 50.432 44.2456 50.096C44.8056 49.76 45.2456 49.296 45.5656 48.704C45.9016 48.096 46.0696 47.392 46.0696 46.592ZM66.2542 40.16C66.6222 40.16 66.9422 40.304 67.2142 40.592C67.4862 40.864 67.6222 41.216 67.6222 41.648C67.6222 41.76 67.6142 41.864 67.5982 41.96C67.5822 42.04 67.5582 42.12 67.5262 42.2L63.8542 52.088C63.7422 52.408 63.5422 52.656 63.2542 52.832C62.9662 52.992 62.6622 53.048 62.3422 53C61.7982 52.968 61.3902 52.664 61.1182 52.088L58.7422 45.248L59.3662 45.272L57.1342 52.088C56.8622 52.664 56.4542 52.968 55.9102 53C55.6062 53.048 55.3022 52.992 54.9982 52.832C54.7102 52.656 54.5102 52.408 54.3982 52.088L50.7262 42.2C50.6622 42.024 50.6302 41.84 50.6302 41.648C50.6302 41.264 50.7582 40.92 51.0142 40.616C51.2702 40.312 51.6222 40.16 52.0702 40.16C52.3742 40.16 52.6462 40.232 52.8862 40.376C53.1262 40.52 53.2942 40.752 53.3902 41.072L56.2942 48.944L55.6942 48.896L57.8782 42.968C58.1342 42.376 58.5742 42.08 59.1982 42.08C59.5502 42.08 59.8142 42.16 59.9902 42.32C60.1822 42.464 60.3342 42.68 60.4462 42.968L62.6302 48.896L61.9102 48.992L64.8622 41.072C65.0542 40.464 65.5182 40.16 66.2542 40.16ZM76.756 39.92C77.94 39.92 78.836 40.168 79.444 40.664C80.068 41.16 80.492 41.824 80.716 42.656C80.956 43.472 81.076 44.384 81.076 45.392V51.536C81.076 51.952 80.94 52.304 80.668 52.592C80.396 52.864 80.052 53 79.636 53C79.22 53 78.876 52.864 78.604 52.592C78.332 52.304 78.196 51.952 78.196 51.536V45.392C78.196 44.864 78.124 44.392 77.98 43.976C77.852 43.544 77.612 43.2 77.26 42.944C76.908 42.688 76.404 42.56 75.748 42.56C75.108 42.56 74.564 42.688 74.116 42.944C73.684 43.2 73.348 43.544 73.108 43.976C72.884 44.392 72.772 44.864 72.772 45.392V51.536C72.772 51.952 72.636 52.304 72.364 52.592C72.092 52.864 71.748 53 71.332 53C70.916 53 70.572 52.864 70.3 52.592C70.028 52.304 69.892 51.952 69.892 51.536V41.624C69.892 41.208 70.028 40.864 70.3 40.592C70.572 40.304 70.916 40.16 71.332 40.16C71.748 40.16 72.092 40.304 72.364 40.592C72.636 40.864 72.772 41.208 72.772 41.624V42.656L72.412 42.584C72.556 42.312 72.764 42.024 73.036 41.72C73.308 41.4 73.628 41.104 73.996 40.832C74.364 40.56 74.78 40.344 75.244 40.184C75.708 40.008 76.212 39.92 76.756 39.92ZM87.3089 51.536C87.3089 51.952 87.1649 52.304 86.8769 52.592C86.6049 52.864 86.2609 53 85.8449 53C85.4449 53 85.1089 52.864 84.8369 52.592C84.5649 52.304 84.4289 51.952 84.4289 51.536V36.704C84.4289 36.288 84.5649 35.944 84.8369 35.672C85.1249 35.384 85.4769 35.24 85.8929 35.24C86.3089 35.24 86.6449 35.384 86.9009 35.672C87.1729 35.944 87.3089 36.288 87.3089 36.704V51.536ZM102.879 46.592C102.879 47.904 102.583 49.064 101.991 50.072C101.415 51.064 100.631 51.84 99.6393 52.4C98.6633 52.96 97.5673 53.24 96.3513 53.24C95.1353 53.24 94.0313 52.96 93.0393 52.4C92.0633 51.84 91.2793 51.064 90.6873 50.072C90.1113 49.064 89.8233 47.904 89.8233 46.592C89.8233 45.28 90.1113 44.128 90.6873 43.136C91.2793 42.128 92.0633 41.344 93.0393 40.784C94.0313 40.208 95.1353 39.92 96.3513 39.92C97.5673 39.92 98.6633 40.208 99.6393 40.784C100.631 41.344 101.415 42.128 101.991 43.136C102.583 44.128 102.879 45.28 102.879 46.592ZM99.9993 46.592C99.9993 45.776 99.8313 45.072 99.4953 44.48C99.1753 43.872 98.7353 43.4 98.1753 43.064C97.6313 42.728 97.0233 42.56 96.3513 42.56C95.6793 42.56 95.0633 42.728 94.5033 43.064C93.9593 43.4 93.5193 43.872 93.1833 44.48C92.8633 45.072 92.7033 45.776 92.7033 46.592C92.7033 47.392 92.8633 48.096 93.1833 48.704C93.5193 49.296 93.9593 49.76 94.5033 50.096C95.0633 50.432 95.6793 50.6 96.3513 50.6C97.0233 50.6 97.6313 50.432 98.1753 50.096C98.7353 49.76 99.1753 49.296 99.4953 48.704C99.8313 48.096 99.9993 47.392 99.9993 46.592ZM115.912 39.92C116.328 39.92 116.672 40.056 116.944 40.328C117.216 40.6 117.352 40.952 117.352 41.384V51.536C117.352 51.952 117.216 52.304 116.944 52.592C116.672 52.864 116.328 53 115.912 53C115.496 53 115.152 52.864 114.88 52.592C114.608 52.304 114.472 51.952 114.472 51.536V50.36L115 50.576C115 50.784 114.888 51.04 114.664 51.344C114.44 51.632 114.136 51.92 113.752 52.208C113.368 52.496 112.912 52.744 112.384 52.952C111.872 53.144 111.312 53.24 110.704 53.24C109.6 53.24 108.6 52.96 107.704 52.4C106.808 51.824 106.096 51.04 105.568 50.048C105.056 49.04 104.8 47.888 104.8 46.592C104.8 45.28 105.056 44.128 105.568 43.136C106.096 42.128 106.8 41.344 107.68 40.784C108.56 40.208 109.536 39.92 110.608 39.92C111.296 39.92 111.928 40.024 112.504 40.232C113.08 40.44 113.576 40.704 113.992 41.024C114.424 41.344 114.752 41.672 114.976 42.008C115.216 42.328 115.336 42.6 115.336 42.824L114.472 43.136V41.384C114.472 40.968 114.608 40.624 114.88 40.352C115.152 40.064 115.496 39.92 115.912 39.92ZM111.064 50.6C111.768 50.6 112.384 50.424 112.912 50.072C113.44 49.72 113.848 49.24 114.136 48.632C114.44 48.024 114.592 47.344 114.592 46.592C114.592 45.824 114.44 45.136 114.136 44.528C113.848 43.92 113.44 43.44 112.912 43.088C112.384 42.736 111.768 42.56 111.064 42.56C110.376 42.56 109.768 42.736 109.24 43.088C108.712 43.44 108.296 43.92 107.992 44.528C107.704 45.136 107.56 45.824 107.56 46.592C107.56 47.344 107.704 48.024 107.992 48.632C108.296 49.24 108.712 49.72 109.24 50.072C109.768 50.424 110.376 50.6 111.064 50.6ZM130.982 35.24C131.398 35.24 131.742 35.376 132.014 35.648C132.286 35.92 132.422 36.272 132.422 36.704V51.536C132.422 51.952 132.286 52.304 132.014 52.592C131.742 52.864 131.398 53 130.982 53C130.566 53 130.222 52.864 129.95 52.592C129.678 52.304 129.542 51.952 129.542 51.536V50.36L130.07 50.576C130.07 50.784 129.958 51.04 129.734 51.344C129.51 51.632 129.206 51.92 128.822 52.208C128.438 52.496 127.982 52.744 127.454 52.952C126.942 53.144 126.382 53.24 125.774 53.24C124.67 53.24 123.67 52.96 122.774 52.4C121.878 51.824 121.166 51.04 120.638 50.048C120.126 49.04 119.87 47.888 119.87 46.592C119.87 45.28 120.126 44.128 120.638 43.136C121.166 42.128 121.87 41.344 122.75 40.784C123.63 40.208 124.606 39.92 125.678 39.92C126.366 39.92 126.998 40.024 127.574 40.232C128.15 40.44 128.646 40.704 129.062 41.024C129.494 41.344 129.822 41.672 130.046 42.008C130.286 42.328 130.406 42.6 130.406 42.824L129.542 43.136V36.704C129.542 36.288 129.678 35.944 129.95 35.672C130.222 35.384 130.566 35.24 130.982 35.24ZM126.134 50.6C126.838 50.6 127.454 50.424 127.982 50.072C128.51 49.72 128.918 49.24 129.206 48.632C129.51 48.024 129.662 47.344 129.662 46.592C129.662 45.824 129.51 45.136 129.206 44.528C128.918 43.92 128.51 43.44 127.982 43.088C127.454 42.736 126.838 42.56 126.134 42.56C125.446 42.56 124.838 42.736 124.31 43.088C123.782 43.44 123.366 43.92 123.062 44.528C122.774 45.136 122.63 45.824 122.63 46.592C122.63 47.344 122.774 48.024 123.062 48.632C123.366 49.24 123.782 49.72 124.31 50.072C124.838 50.424 125.446 50.6 126.134 50.6ZM143.971 36.2H152.011C152.427 36.2 152.771 36.336 153.043 36.608C153.331 36.864 153.475 37.2 153.475 37.616C153.475 38.016 153.331 38.344 153.043 38.6C152.771 38.84 152.427 38.96 152.011 38.96H145.291L145.507 38.552V43.232L145.315 43.04H150.931C151.347 43.04 151.691 43.176 151.963 43.448C152.251 43.704 152.395 44.04 152.395 44.456C152.395 44.856 152.251 45.184 151.963 45.44C151.691 45.68 151.347 45.8 150.931 45.8H145.387L145.507 45.608V50.456L145.315 50.24H152.011C152.427 50.24 152.771 50.384 153.043 50.672C153.331 50.944 153.475 51.264 153.475 51.632C153.475 52.032 153.331 52.36 153.043 52.616C152.771 52.872 152.427 53 152.011 53H143.971C143.555 53 143.203 52.864 142.915 52.592C142.643 52.304 142.507 51.952 142.507 51.536V37.664C142.507 37.248 142.643 36.904 142.915 36.632C143.203 36.344 143.555 36.2 143.971 36.2ZM156.265 40.16C156.729 40.16 157.121 40.36 157.441 40.76L165.457 50.72C165.665 50.976 165.769 51.264 165.769 51.584C165.769 51.984 165.617 52.328 165.313 52.616C165.009 52.904 164.673 53.048 164.305 53.048C163.841 53.048 163.449 52.84 163.129 52.424L155.113 42.464C154.905 42.208 154.801 41.92 154.801 41.6C154.801 41.184 154.945 40.84 155.233 40.568C155.537 40.296 155.881 40.16 156.265 40.16ZM156.289 53.024C155.969 53.024 155.649 52.904 155.329 52.664C155.025 52.408 154.873 52.104 154.873 51.752C154.873 51.432 154.993 51.128 155.233 50.84L158.905 46.352L160.345 48.752L157.441 52.424C157.137 52.824 156.753 53.024 156.289 53.024ZM164.281 40.16C164.665 40.16 164.985 40.296 165.241 40.568C165.513 40.824 165.649 41.12 165.649 41.456C165.649 41.616 165.625 41.776 165.577 41.936C165.529 42.096 165.441 42.248 165.313 42.392L161.689 46.808L160.177 44.72L163.129 40.808C163.449 40.376 163.833 40.16 164.281 40.16ZM169.036 40.4H174.724C175.108 40.4 175.428 40.528 175.684 40.784C175.94 41.04 176.068 41.36 176.068 41.744C176.068 42.112 175.94 42.424 175.684 42.68C175.428 42.92 175.108 43.04 174.724 43.04H169.036C168.652 43.04 168.332 42.912 168.076 42.656C167.82 42.4 167.692 42.08 167.692 41.696C167.692 41.328 167.82 41.024 168.076 40.784C168.332 40.528 168.652 40.4 169.036 40.4ZM171.604 37.4C172.02 37.4 172.356 37.544 172.612 37.832C172.884 38.104 173.02 38.448 173.02 38.864V49.544C173.02 49.768 173.06 49.952 173.14 50.096C173.236 50.24 173.356 50.344 173.5 50.408C173.66 50.472 173.828 50.504 174.004 50.504C174.196 50.504 174.372 50.472 174.532 50.408C174.692 50.328 174.876 50.288 175.084 50.288C175.308 50.288 175.508 50.392 175.684 50.6C175.876 50.808 175.972 51.096 175.972 51.464C175.972 51.912 175.724 52.28 175.228 52.568C174.748 52.856 174.228 53 173.668 53C173.332 53 172.956 52.976 172.54 52.928C172.14 52.864 171.756 52.728 171.388 52.52C171.036 52.296 170.74 51.96 170.5 51.512C170.26 51.064 170.14 50.448 170.14 49.664V38.864C170.14 38.448 170.276 38.104 170.548 37.832C170.836 37.544 171.188 37.4 171.604 37.4ZM184.643 53.24C183.283 53.24 182.099 52.96 181.091 52.4C180.099 51.824 179.331 51.048 178.787 50.072C178.259 49.096 177.995 47.992 177.995 46.76C177.995 45.32 178.283 44.096 178.859 43.088C179.451 42.064 180.219 41.28 181.163 40.736C182.107 40.192 183.107 39.92 184.163 39.92C184.979 39.92 185.747 40.088 186.467 40.424C187.203 40.76 187.851 41.224 188.411 41.816C188.971 42.392 189.411 43.064 189.731 43.832C190.067 44.6 190.235 45.416 190.235 46.28C190.219 46.664 190.067 46.976 189.779 47.216C189.491 47.456 189.155 47.576 188.771 47.576H179.603L178.883 45.176H187.691L187.163 45.656V45.008C187.131 44.544 186.963 44.128 186.659 43.76C186.371 43.392 186.003 43.104 185.555 42.896C185.123 42.672 184.659 42.56 184.163 42.56C183.683 42.56 183.235 42.624 182.819 42.752C182.403 42.88 182.043 43.096 181.739 43.4C181.435 43.704 181.195 44.112 181.019 44.624C180.843 45.136 180.755 45.784 180.755 46.568C180.755 47.432 180.931 48.168 181.283 48.776C181.651 49.368 182.115 49.824 182.675 50.144C183.251 50.448 183.859 50.6 184.499 50.6C185.091 50.6 185.563 50.552 185.915 50.456C186.267 50.36 186.547 50.248 186.755 50.12C186.979 49.976 187.179 49.856 187.355 49.76C187.643 49.616 187.915 49.544 188.171 49.544C188.523 49.544 188.811 49.664 189.035 49.904C189.275 50.144 189.395 50.424 189.395 50.744C189.395 51.176 189.171 51.568 188.723 51.92C188.307 52.272 187.723 52.584 186.971 52.856C186.219 53.112 185.443 53.24 184.643 53.24ZM199.615 39.92C200.799 39.92 201.695 40.168 202.303 40.664C202.927 41.16 203.351 41.824 203.575 42.656C203.815 43.472 203.935 44.384 203.935 45.392V51.536C203.935 51.952 203.799 52.304 203.527 52.592C203.255 52.864 202.911 53 202.495 53C202.079 53 201.735 52.864 201.463 52.592C201.191 52.304 201.055 51.952 201.055 51.536V45.392C201.055 44.864 200.983 44.392 200.839 43.976C200.711 43.544 200.471 43.2 200.119 42.944C199.767 42.688 199.263 42.56 198.607 42.56C197.967 42.56 197.423 42.688 196.975 42.944C196.543 43.2 196.207 43.544 195.967 43.976C195.743 44.392 195.631 44.864 195.631 45.392V51.536C195.631 51.952 195.495 52.304 195.223 52.592C194.951 52.864 194.607 53 194.191 53C193.775 53 193.431 52.864 193.159 52.592C192.887 52.304 192.751 51.952 192.751 51.536V41.624C192.751 41.208 192.887 40.864 193.159 40.592C193.431 40.304 193.775 40.16 194.191 40.16C194.607 40.16 194.951 40.304 195.223 40.592C195.495 40.864 195.631 41.208 195.631 41.624V42.656L195.271 42.584C195.415 42.312 195.623 42.024 195.895 41.72C196.167 41.4 196.487 41.104 196.855 40.832C197.223 40.56 197.639 40.344 198.103 40.184C198.567 40.008 199.071 39.92 199.615 39.92ZM206.304 51.008C206.144 50.784 206.072 50.496 206.088 50.144C206.104 49.792 206.312 49.488 206.712 49.232C206.968 49.072 207.24 49.008 207.528 49.04C207.816 49.056 208.096 49.2 208.368 49.472C208.832 49.936 209.32 50.296 209.832 50.552C210.344 50.808 210.984 50.936 211.752 50.936C211.992 50.92 212.256 50.888 212.544 50.84C212.832 50.776 213.08 50.648 213.288 50.456C213.512 50.248 213.624 49.936 213.624 49.52C213.624 49.168 213.504 48.888 213.264 48.68C213.024 48.472 212.704 48.296 212.304 48.152C211.92 48.008 211.488 47.872 211.008 47.744C210.512 47.6 210 47.44 209.472 47.264C208.96 47.088 208.488 46.864 208.056 46.592C207.624 46.304 207.272 45.928 207 45.464C206.728 45 206.592 44.416 206.592 43.712C206.592 42.912 206.816 42.232 207.264 41.672C207.712 41.112 208.288 40.68 208.992 40.376C209.712 40.072 210.464 39.92 211.248 39.92C211.744 39.92 212.264 39.984 212.808 40.112C213.352 40.224 213.872 40.416 214.368 40.688C214.864 40.944 215.28 41.288 215.616 41.72C215.792 41.96 215.896 42.248 215.928 42.584C215.96 42.92 215.808 43.224 215.472 43.496C215.232 43.688 214.952 43.776 214.632 43.76C214.312 43.728 214.048 43.616 213.84 43.424C213.568 43.072 213.2 42.792 212.736 42.584C212.288 42.376 211.768 42.272 211.176 42.272C210.936 42.272 210.672 42.304 210.384 42.368C210.112 42.416 209.872 42.536 209.664 42.728C209.456 42.904 209.352 43.192 209.352 43.592C209.352 43.96 209.472 44.256 209.712 44.48C209.952 44.688 210.272 44.864 210.672 45.008C211.088 45.136 211.528 45.264 211.992 45.392C212.472 45.52 212.96 45.672 213.456 45.848C213.952 46.024 214.408 46.256 214.824 46.544C215.24 46.832 215.576 47.208 215.832 47.672C216.088 48.12 216.216 48.696 216.216 49.4C216.216 50.216 215.976 50.912 215.496 51.488C215.016 52.064 214.416 52.504 213.696 52.808C212.976 53.096 212.24 53.24 211.488 53.24C210.544 53.24 209.6 53.08 208.656 52.76C207.712 52.424 206.928 51.84 206.304 51.008ZM221.338 51.536C221.338 51.952 221.202 52.304 220.93 52.592C220.658 52.864 220.314 53 219.898 53C219.482 53 219.138 52.864 218.866 52.592C218.594 52.304 218.458 51.952 218.458 51.536V41.624C218.458 41.208 218.594 40.864 218.866 40.592C219.138 40.304 219.482 40.16 219.898 40.16C220.314 40.16 220.658 40.304 220.93 40.592C221.202 40.864 221.338 41.208 221.338 41.624V51.536ZM219.874 38.6C219.33 38.6 218.946 38.512 218.722 38.336C218.498 38.16 218.386 37.848 218.386 37.4V36.944C218.386 36.48 218.506 36.168 218.746 36.008C219.002 35.832 219.386 35.744 219.898 35.744C220.458 35.744 220.85 35.832 221.074 36.008C221.298 36.184 221.41 36.496 221.41 36.944V37.4C221.41 37.864 221.29 38.184 221.05 38.36C220.81 38.52 220.418 38.6 219.874 38.6ZM236.754 46.592C236.754 47.904 236.458 49.064 235.866 50.072C235.29 51.064 234.506 51.84 233.514 52.4C232.538 52.96 231.442 53.24 230.226 53.24C229.01 53.24 227.906 52.96 226.914 52.4C225.938 51.84 225.154 51.064 224.562 50.072C223.986 49.064 223.698 47.904 223.698 46.592C223.698 45.28 223.986 44.128 224.562 43.136C225.154 42.128 225.938 41.344 226.914 40.784C227.906 40.208 229.01 39.92 230.226 39.92C231.442 39.92 232.538 40.208 233.514 40.784C234.506 41.344 235.29 42.128 235.866 43.136C236.458 44.128 236.754 45.28 236.754 46.592ZM233.874 46.592C233.874 45.776 233.706 45.072 233.37 44.48C233.05 43.872 232.61 43.4 232.05 43.064C231.506 42.728 230.898 42.56 230.226 42.56C229.554 42.56 228.938 42.728 228.378 43.064C227.834 43.4 227.394 43.872 227.058 44.48C226.738 45.072 226.578 45.776 226.578 46.592C226.578 47.392 226.738 48.096 227.058 48.704C227.394 49.296 227.834 49.76 228.378 50.096C228.938 50.432 229.554 50.6 230.226 50.6C230.898 50.6 231.506 50.432 232.05 50.096C232.61 49.76 233.05 49.296 233.37 48.704C233.706 48.096 233.874 47.392 233.874 46.592ZM246.139 39.92C247.323 39.92 248.219 40.168 248.827 40.664C249.451 41.16 249.875 41.824 250.099 42.656C250.339 43.472 250.459 44.384 250.459 45.392V51.536C250.459 51.952 250.323 52.304 250.051 52.592C249.779 52.864 249.435 53 249.019 53C248.603 53 248.259 52.864 247.987 52.592C247.715 52.304 247.579 51.952 247.579 51.536V45.392C247.579 44.864 247.507 44.392 247.363 43.976C247.235 43.544 246.995 43.2 246.643 42.944C246.291 42.688 245.787 42.56 245.131 42.56C244.491 42.56 243.947 42.688 243.499 42.944C243.067 43.2 242.731 43.544 242.491 43.976C242.267 44.392 242.155 44.864 242.155 45.392V51.536C242.155 51.952 242.019 52.304 241.747 52.592C241.475 52.864 241.131 53 240.715 53C240.299 53 239.955 52.864 239.683 52.592C239.411 52.304 239.275 51.952 239.275 51.536V41.624C239.275 41.208 239.411 40.864 239.683 40.592C239.955 40.304 240.299 40.16 240.715 40.16C241.131 40.16 241.475 40.304 241.747 40.592C242.019 40.864 242.155 41.208 242.155 41.624V42.656L241.795 42.584C241.939 42.312 242.147 42.024 242.419 41.72C242.691 41.4 243.011 41.104 243.379 40.832C243.747 40.56 244.163 40.344 244.627 40.184C245.091 40.008 245.595 39.92 246.139 39.92ZM255.228 47.696C254.684 47.696 254.388 47.392 254.34 46.784L253.644 37.952C253.612 37.456 253.74 37.04 254.028 36.704C254.332 36.368 254.724 36.2 255.204 36.2C255.684 36.2 256.076 36.368 256.38 36.704C256.684 37.04 256.812 37.456 256.764 37.952L256.092 46.784C256.044 47.392 255.756 47.696 255.228 47.696ZM255.06 53C254.596 53 254.236 52.88 253.98 52.64C253.74 52.384 253.62 52.024 253.62 51.56V51.152C253.62 50.688 253.74 50.336 253.98 50.096C254.236 49.84 254.596 49.712 255.06 49.712H255.372C255.836 49.712 256.188 49.84 256.428 50.096C256.684 50.336 256.812 50.688 256.812 51.152V51.56C256.812 52.024 256.684 52.384 256.428 52.64C256.188 52.88 255.836 53 255.372 53H255.06Z" fill="white"/>
</svg>
