<svg width="25" height="24" viewBox="0 0 25 24" fill="none" xmlns="http://www.w3.org/2000/svg">
<g id="report_problem" clip-path="url(#clip0_713_4618)">
<path id="Vector 4" d="M1.65499 20.5039L11.9318 2.51943C12.3157 1.84761 13.2844 1.84761 13.6683 2.51943L23.9451 20.5039C24.3261 21.1705 23.8447 22 23.0769 22H2.52323C1.75541 22 1.27404 21.1705 1.65499 20.5039Z" fill="#7E8EF8" stroke="#7E8EF8" stroke-linecap="round" stroke-linejoin="round"/>
<path id="Vector 5" d="M13.8 7H11.8L12.8 16L13.8 7Z" fill="#EAE5FD" stroke="#EAE5FD" stroke-linejoin="round"/>
<path id="Ellipse 36" d="M13.3 19C13.3 19.2761 13.0762 19.5 12.8 19.5C12.5239 19.5 12.3 19.2761 12.3 19C12.3 18.7239 12.5239 18.5 12.8 18.5C13.0762 18.5 13.3 18.7239 13.3 19Z" fill="#EAE5FD" stroke="#EAE5FD"/>
</g>
<defs>
<clipPath id="clip0_713_4618">
<rect width="24" height="24" fill="white" transform="translate(0.800049)"/>
</clipPath>
</defs>
</svg>
