<svg width="18" height="18" viewBox="0 0 18 18" fill="none" xmlns="http://www.w3.org/2000/svg">
<g id="star" clip-path="url(#clip0_745_1993)">
<path id="Star 1" d="M8.54874 2.1067C8.72986 1.72713 9.27014 1.72714 9.45126 2.1067L11.1952 5.76131C11.4138 6.21957 11.8495 6.5361 12.3529 6.60246L16.3675 7.13166C16.7845 7.18663 16.9514 7.70046 16.6464 7.99001L13.7096 10.7779C13.3413 11.1275 13.1749 11.6396 13.2674 12.1389L14.0046 16.1206C14.0812 16.5341 13.6441 16.8517 13.2745 16.6511L9.71552 14.7194C9.26925 14.4772 8.73075 14.4772 8.28448 14.7194L4.72551 16.6511C4.35588 16.8517 3.91878 16.5341 3.99536 16.1206L4.73265 12.1389C4.8251 11.6396 4.65869 11.1275 4.29043 10.7779L1.35358 7.99001C1.04856 7.70046 1.21552 7.18663 1.63247 7.13166L5.64711 6.60246C6.15051 6.5361 6.58618 6.21957 6.80485 5.76131L8.54874 2.1067Z" stroke="#7E8EF8"/>
</g>
<defs>
<clipPath id="clip0_745_1993">
<rect width="18" height="18" fill="white"/>
</clipPath>
</defs>
</svg>
